# xmcd
#
# Track frame offsets:
#	150
#	20651
#	37621
#	58739
#	80706
#	97840
#	126938
#	145327
#	166216
#	186998
#	208089
#
# Disc length: 3034 seconds
#
# Revision: 0
# Processed by: cddbd v1.5.1PL0 Copyright (c) Steve Scherf et al.
# Submitted via: dBpowerAMP V4.0
#
DISCID=950bd80b
DTITLE=VIP - I Wanna Know
DYEAR=1900
DGENRE=Kizomba
TTITLE0=Celso - Teb Pa Mim [Ft. Vânia]
TTITLE1=Celso - Distino
TTITLE2=Celso - Think [Ft. Vânia]
TTITLE3=Sónia - F'ca Ma Mim [Ft. Vânia]
TTITLE4=V.I.P - That Way
TTITLE5=V.I.P - Ben Flan
TTITLE6=Sónia - Nha Mundo [Ft. Celso]
TTITLE7=V.I.P - Olim Li [Ft. Vânia and Celso]
TTITLE8=Celso - Alucinado [Ft. D. Masha and V.I.P]
TTITLE9=Celso - Think [Ft. Vânia] [Remix]
TTITLE10=V.I.P - Tempo
EXTD=VIP - I Wanna Know
EXTT0=
EXTT1=
EXTT2=
EXTT3=
EXTT4=
EXTT5=
EXTT6=
EXTT7=
EXTT8=
EXTT9=
EXTT10=
PLAYORDER=
